<?xml version="1.0" encoding="UTF-8"?>
<!--Generator: Apple Native CoreSVG 175-->
<!DOCTYPE svg
PUBLIC "-//W3C//DTD SVG 1.1//EN"
       "http://www.w3.org/Graphics/SVG/1.1/DTD/svg11.dtd">
<svg version="1.1" xmlns="http://www.w3.org/2000/svg" xmlns:xlink="http://www.w3.org/1999/xlink" width="23.506" height="20.6058">
 <g>
  <rect height="20.6058" opacity="0" width="23.506" x="0" y="0"/>
  <path d="M11.8639 10.829L17.8532 4.83337L14.9426 1.91284Q14.0027 0.974731 12.9271 0.648575Q11.8515 0.322418 10.7874 0.610428Q9.72336 0.898438 8.82797 1.79398Q7.93243 2.68936 7.64442 3.75031Q7.35641 4.81125 7.67769 5.89172Q7.99896 6.9722 8.93707 7.91031ZM13.1441 12.1173L16.0727 15.0476Q17.0045 15.9776 18.0792 16.3029Q19.1539 16.6283 20.218 16.3403Q21.282 16.0522 22.1873 15.1585Q23.0827 14.2728 23.3707 13.2079Q23.6588 12.1429 23.3334 11.0616Q23.0081 9.98016 22.0702 9.04221L19.1415 6.11359ZM0 14.4461L10.4065 14.4461Q10.2071 13.197 9.46953 12.1992Q8.73199 11.2013 7.62383 10.6163Q6.51566 10.0313 5.20721 10.0313Q3.89252 10.0313 2.78343 10.6163Q1.67435 11.2013 0.93689 12.1992Q0.199432 13.197 0 14.4461ZM0 16.1812Q0.197601 17.4382 0.935135 18.437Q1.67267 19.4357 2.78175 20.0208Q3.89084 20.6058 5.20721 20.6058Q6.51566 20.6058 7.61986 20.0208Q8.72406 19.4357 9.46152 18.433Q10.199 17.4303 10.4065 16.1812Z" fill="rgba(255,255,255,0.85)"/>
 </g>
</svg>
