<?xml version="1.0" encoding="UTF-8"?>
<!--Generator: Apple Native CoreSVG 175-->
<!DOCTYPE svg
PUBLIC "-//W3C//DTD SVG 1.1//EN"
       "http://www.w3.org/Graphics/SVG/1.1/DTD/svg11.dtd">
<svg version="1.1" xmlns="http://www.w3.org/2000/svg" xmlns:xlink="http://www.w3.org/1999/xlink" width="22.6868" height="20.8679">
 <g>
  <rect height="20.8679" opacity="0" width="22.6868" x="0" y="0"/>
  <path d="M0 2.33612Q0 2.71088 0.268478 2.98332Q0.536957 3.25577 0.901947 3.25577L3.97949 3.25577L5.49271 13.6198Q5.65781 14.7211 6.25847 15.3538Q6.85913 15.9865 7.97638 15.9865L19.3448 15.9865Q19.6841 15.9865 19.9447 15.7449Q20.2052 15.5032 20.2052 15.1241Q20.2052 14.7464 19.9447 14.5066Q19.6841 14.2668 19.3448 14.2668L8.19336 14.2668Q7.84302 14.2668 7.62199 14.036Q7.40097 13.8052 7.35123 13.421L7.19849 12.4098L19.417 12.4098Q20.5386 12.4098 21.1411 11.7748Q21.7436 11.1398 21.9069 10.0253L22.6442 5.11429Q22.6619 5.01312 22.6743 4.90349Q22.6868 4.79385 22.6868 4.70978Q22.6868 4.29321 22.4048 4.02779Q22.1228 3.76236 21.6258 3.76236L5.95367 3.76236L5.78644 2.68906Q5.69962 2.05765 5.38269 1.74103Q5.06577 1.42441 4.25064 1.42441L0.901947 1.42441Q0.536957 1.42441 0.268478 1.69601Q0 1.96762 0 2.33612ZM7.07169 19.1751Q7.07169 19.6463 7.30232 20.0322Q7.53296 20.4181 7.91489 20.643Q8.29681 20.8679 8.77243 20.8679Q9.4725 20.8679 9.96796 20.3764Q10.4634 19.8849 10.4634 19.1751Q10.4634 18.4689 9.96796 17.9765Q9.4725 17.4841 8.77243 17.4841Q8.29681 17.4841 7.91489 17.71Q7.53296 17.9358 7.30232 18.3217Q7.07169 18.7076 7.07169 19.1751ZM16.1041 19.1751Q16.1041 19.8849 16.6045 20.3764Q17.1049 20.8679 17.8032 20.8679Q18.5112 20.8679 19.0067 20.3764Q19.5021 19.8849 19.5021 19.1751Q19.5021 18.4689 19.0067 17.9765Q18.5112 17.4841 17.8032 17.4841Q17.3338 17.4841 16.9479 17.71Q16.5619 17.9358 16.333 18.3217Q16.1041 18.7076 16.1041 19.1751Z" fill="rgba(255,255,255,0.85)"/>
 </g>
</svg>
