<?xml version="1.0" encoding="UTF-8"?>
<!--Generator: Apple Native CoreSVG 175-->
<!DOCTYPE svg
PUBLIC "-//W3C//DTD SVG 1.1//EN"
       "http://www.w3.org/Graphics/SVG/1.1/DTD/svg11.dtd">
<svg version="1.1" xmlns="http://www.w3.org/2000/svg" xmlns:xlink="http://www.w3.org/1999/xlink" width="27.2476" height="15.7935">
 <g>
  <rect height="15.7935" opacity="0" width="27.2476" x="0" y="0"/>
  <path d="M0 12.6329Q0 14.192 0.808716 14.9928Q1.61743 15.7935 3.1926 15.7935L22.1877 15.7935Q23.8263 15.7935 24.9557 15.2244Q26.0852 14.6553 26.6664 13.6936Q27.2476 12.7319 27.2476 11.5677Q27.2476 10.5054 26.7538 9.39636Q26.2599 8.28735 25.2525 7.29767L21.2355 3.3136Q20.2689 2.35672 19.4328 1.71944Q18.5966 1.08215 17.7711 0.70488Q16.9456 0.327606 16.0217 0.163803Q15.0977 0 13.9552 0L3.1926 0Q1.61743 0 0.808716 0.800705Q0 1.60141 0 3.16055ZM10.7047 7.96249L10.7047 4.46014Q10.7047 3.56583 11.599 3.56583L14.0164 3.56583Q15.0789 3.56583 15.8695 3.64799Q16.6602 3.73016 17.2694 3.91884Q17.8786 4.10751 18.3972 4.43779Q18.9159 4.76807 19.4281 5.2803L21.5811 7.42172Q21.8715 7.7121 21.8879 8.04337Q21.9043 8.37463 21.7097 8.60374Q21.5152 8.83286 21.192 8.83286L11.599 8.83286Q11.1771 8.83286 10.9409 8.59665Q10.7047 8.36044 10.7047 7.96249Z" fill="rgba(255,255,255,0.85)"/>
 </g>
</svg>
