<?xml version="1.0" encoding="UTF-8"?>
<!--Generator: Apple Native CoreSVG 175-->
<!DOCTYPE svg
PUBLIC "-//W3C//DTD SVG 1.1//EN"
       "http://www.w3.org/Graphics/SVG/1.1/DTD/svg11.dtd">
<svg version="1.1" xmlns="http://www.w3.org/2000/svg" xmlns:xlink="http://www.w3.org/1999/xlink" width="26.0002" height="21.6699">
 <g>
  <rect height="21.6699" opacity="0" width="26.0002" x="0" y="0"/>
  <path d="M8.02298 21.6699L17.9758 21.6699Q19.3842 21.6699 20.0971 20.9686Q20.81 20.2672 20.8295 18.8686L20.953 9.50897L23.1153 9.99603Q23.899 10.1584 24.403 9.84894Q24.907 9.53949 25.0818 8.76602L25.9299 5.2623Q26.1127 4.49341 25.8201 3.93883Q25.5276 3.38425 24.7799 3.07114L17.9857 0.185394Q17.6523 0.042572 17.349 0.0466156Q17.0457 0.0506592 16.7406 0.193329Q16.0821 0.501404 15.4983 0.702972Q14.9145 0.904541 14.3119 1.00754Q13.7093 1.11053 13.0044 1.11053Q12.2912 1.11053 11.6887 1.00754Q11.0862 0.904541 10.5024 0.702972Q9.91858 0.501404 9.26001 0.193329Q8.95483 0.0506592 8.65156 0.0466156Q8.3483 0.042572 8.01489 0.185394L1.22076 3.07114Q0.481017 3.38425 0.183547 3.93883Q-0.113923 4.49341 0.0707086 5.2623L0.916961 8.76602Q1.09351 9.53949 1.5975 9.84894Q2.1015 10.1584 2.88534 9.99603L5.05392 9.50897L5.17111 18.8686Q5.19064 20.2672 5.90353 20.9686Q6.61642 21.6699 8.02298 21.6699ZM13.0044 4.32968Q12.2101 4.32968 11.5712 4.06944Q10.9322 3.8092 10.4763 3.33305Q10.0204 2.8569 9.77698 2.202Q10.5176 2.47208 11.3396 2.61429Q12.1615 2.7565 13.0044 2.7565Q13.839 2.7565 14.661 2.61429Q15.483 2.47208 16.2237 2.202Q15.9882 2.84882 15.5363 3.32497Q15.0844 3.80112 14.4414 4.0654Q13.7984 4.32968 13.0044 4.32968Z" fill="rgba(255,255,255,0.85)"/>
 </g>
</svg>
