<?xml version="1.0" encoding="UTF-8"?>
<!--Generator: Apple Native CoreSVG 175-->
<!DOCTYPE svg
PUBLIC "-//W3C//DTD SVG 1.1//EN"
       "http://www.w3.org/Graphics/SVG/1.1/DTD/svg11.dtd">
<svg version="1.1" xmlns="http://www.w3.org/2000/svg" xmlns:xlink="http://www.w3.org/1999/xlink" width="23.8344" height="22.5061">
 <g>
  <rect height="22.5061" opacity="0" width="23.8344" x="0" y="0"/>
  <path d="M14.474 18.8933L9.35226 18.8933L9.35226 12.6158Q9.35226 12.2705 9.56406 12.0667Q9.77585 11.8629 10.1149 11.8629L13.7213 11.8629Q14.0666 11.8629 14.2703 12.0667Q14.474 12.2705 14.474 12.6158ZM3.15765 18.6168Q3.15765 19.6754 3.77823 20.2718Q4.3988 20.8681 5.48492 20.8681L18.3636 20.8681Q19.4418 20.8681 20.0616 20.2718Q20.6813 19.6754 20.6813 18.6168L20.6813 11.1758L12.5238 4.33319Q11.922 3.82278 11.3203 4.33319L3.15765 11.1758ZM0 9.84253Q0 10.2226 0.268555 10.4996Q0.537109 10.7767 0.998077 10.7767Q1.22604 10.7767 1.42769 10.6711Q1.62933 10.5655 1.81015 10.4237L11.51 2.28561Q11.7111 2.11105 11.927 2.11105Q12.1428 2.11105 12.3439 2.28561L22.0384 10.4237Q22.2131 10.5655 22.4148 10.6711Q22.6164 10.7767 22.8444 10.7767Q23.2634 10.7767 23.5489 10.5325Q23.8344 10.2884 23.8344 9.86649Q23.8344 9.38431 23.4596 9.07059L13.2953 0.527496Q12.6659 0 11.927 0Q11.188 0 10.5586 0.527496L0.382843 9.07242Q0 9.38965 0 9.84253ZM17.9558 5.11307L20.7146 7.43469L20.7146 2.72079Q20.7146 2.39151 20.5198 2.19582Q20.325 2.00012 19.9939 2.00012L18.6783 2.00012Q18.3571 2.00012 18.1564 2.19582Q17.9558 2.39151 17.9558 2.72079Z" fill="rgba(255,255,255,0.85)"/>
 </g>
</svg>
