<?xml version="1.0" encoding="UTF-8"?>
<!--Generator: Apple Native CoreSVG 175-->
<!DOCTYPE svg
PUBLIC "-//W3C//DTD SVG 1.1//EN"
       "http://www.w3.org/Graphics/SVG/1.1/DTD/svg11.dtd">
<svg version="1.1" xmlns="http://www.w3.org/2000/svg" xmlns:xlink="http://www.w3.org/1999/xlink" width="15.1193" height="18.5388">
 <g>
  <rect height="18.5388" opacity="0" width="15.1193" x="0" y="0"/>
  <path d="M7.55875 18.5388Q8.02933 18.5388 8.32619 18.2397Q8.62305 17.9407 8.62305 17.4597L8.62305 5.32776L8.50601 2.14523L7.85797 2.46536L11.123 6.09924L13.3408 8.28674Q13.4843 8.43216 13.678 8.51357Q13.8716 8.59497 14.0984 8.59497Q14.5354 8.59497 14.8273 8.30162Q15.1193 8.00827 15.1193 7.56088Q15.1193 7.13013 14.7923 6.78894L8.35373 0.340576Q8.19595 0.174713 7.98859 0.0873566Q7.78122 0 7.55875 0Q7.34253 0 7.13608 0.0873566Q6.92963 0.174713 6.76392 0.340576L0.333252 6.78894Q0 7.13013 0 7.56088Q0 8.00827 0.291977 8.30162Q0.583954 8.59497 1.02097 8.59497Q1.24771 8.59497 1.44043 8.51357Q1.63315 8.43216 1.77856 8.28674L3.99277 6.09924L7.25159 2.46536L6.6098 2.14523L6.49277 5.32776L6.49277 17.4597Q6.49277 17.9407 6.78963 18.2397Q7.08649 18.5388 7.55875 18.5388Z" fill="rgba(255,255,255,0.85)"/>
 </g>
</svg>
