<?xml version="1.0" encoding="UTF-8"?>
<!--Generator: Apple Native CoreSVG 175-->
<!DOCTYPE svg
PUBLIC "-//W3C//DTD SVG 1.1//EN"
       "http://www.w3.org/Graphics/SVG/1.1/DTD/svg11.dtd">
<svg version="1.1" xmlns="http://www.w3.org/2000/svg" xmlns:xlink="http://www.w3.org/1999/xlink" width="23.7612" height="28.0765">
 <g>
  <rect height="28.0765" opacity="0" width="23.7612" x="0" y="0"/>
  <path d="M15.3455 6.9136Q15.647 6.9136 15.67 6.604Q15.7739 5.75882 15.8876 5.27931Q16.0013 4.7998 16.2499 4.55429Q16.4986 4.30878 16.9936 4.17953Q17.4886 4.05029 18.3551 3.90915Q18.6745 3.87451 18.6745 3.59436Q18.6745 3.3255 18.396 3.28293Q17.5179 3.11523 17.0171 2.98424Q16.5163 2.85324 16.2627 2.61436Q16.0092 2.37549 15.8916 1.90666Q15.7739 1.43784 15.67 0.592499Q15.6451 0.28656 15.3455 0.28656Q15.0668 0.28656 15.0421 0.582733Q14.9284 1.44135 14.8138 1.93237Q14.6992 2.4234 14.4507 2.67204Q14.2021 2.92068 13.7022 3.04008Q13.2022 3.15948 12.3178 3.28293Q12.1982 3.29453 12.1179 3.38142Q12.0377 3.46832 12.0377 3.59436Q12.0377 3.871 12.3161 3.90915Q13.2022 4.08493 13.7022 4.22073Q14.2021 4.35654 14.4507 4.59541Q14.6992 4.83429 14.8138 5.30807Q14.9284 5.78186 15.0421 6.62537Q15.0536 6.75308 15.1405 6.83334Q15.2275 6.9136 15.3455 6.9136ZM8.57849 4.29794Q8.77457 4.29794 8.81363 4.09836Q8.9415 3.37997 9.05518 3.06877Q9.16885 2.75757 9.47693 2.63992Q9.785 2.52228 10.5132 2.38907Q10.7341 2.33841 10.7341 2.15393Q10.7341 1.9577 10.5185 1.90887Q9.96887 1.80328 9.67278 1.71631Q9.37668 1.62933 9.22707 1.47743Q9.07745 1.32553 8.99887 1.02982Q8.92029 0.7341 8.81363 0.209351Q8.76648 0 8.57849 0Q8.37875 0 8.3432 0.20752Q8.23486 0.73761 8.15536 1.036Q8.07587 1.33438 7.92717 1.48796Q7.77847 1.64154 7.47925 1.72508Q7.18002 1.80862 6.64017 1.90887Q6.42273 1.95419 6.42273 2.15393Q6.42273 2.33841 6.63834 2.38907Q7.17819 2.49466 7.48146 2.5808Q7.78473 2.66693 7.93747 2.8157Q8.09021 2.96448 8.16566 3.265Q8.24112 3.56552 8.3432 4.10019Q8.37875 4.29794 8.57849 4.29794ZM2.85461 26.5028Q3.08151 26.5028 3.12241 26.2483Q3.25211 25.5354 3.35686 25.127Q3.46161 24.7186 3.66585 24.5113Q3.87009 24.304 4.28825 24.1855Q4.70642 24.0669 5.45486 23.932Q5.71274 23.8699 5.71274 23.6482Q5.71274 23.4203 5.46356 23.3723Q4.70993 23.2259 4.2971 23.1016Q3.88428 22.9773 3.68011 22.7691Q3.47595 22.5609 3.37112 22.16Q3.2663 21.7592 3.12241 21.0498Q3.08151 20.7935 2.85461 20.7935Q2.6329 20.7935 2.58057 21.048Q2.43484 21.7627 2.33093 22.1688Q2.22702 22.5749 2.02682 22.7831Q1.82663 22.9913 1.4196 23.113Q1.01257 23.2347 0.250854 23.3723Q0 23.4167 0 23.6482Q0 23.8699 0.249176 23.932Q1.01089 24.0785 1.42189 24.1997Q1.83289 24.3208 2.03712 24.529Q2.24136 24.7372 2.34528 25.1398Q2.44919 25.5424 2.58057 26.2537Q2.6329 26.5028 2.85461 26.5028ZM8.0397 23.2806Q9.20166 24.4408 10.4824 24.9911Q11.7632 25.5415 13.063 25.5221Q14.3628 25.5026 15.5876 24.948Q16.8124 24.3933 17.8607 23.3434Q19.4513 21.7607 19.8668 20.0481Q20.2823 18.3354 19.6918 16.3382Q19.5343 15.6889 19.2863 15.0163Q19.0382 14.3437 18.7245 13.6651Q18.4108 12.9865 18.0713 12.3234Q17.7318 11.6603 17.3976 11.024Q17.1794 10.5992 16.935 10.1301Q16.6907 9.66095 16.4654 9.2672Q16.2401 8.87344 16.0689 8.68103Q15.7849 8.36014 15.3986 8.34312Q15.0122 8.32611 14.6841 8.6174Q14.3082 8.94943 14.2778 9.40468Q14.2474 9.85992 14.4925 10.5573L15.593 13.5938Q15.6834 13.8141 15.6705 13.9513Q15.6577 14.0886 15.5832 14.1713Q15.4863 14.2682 15.3601 14.2641Q15.2339 14.2601 15.0607 14.0869L7.76184 6.78802Q7.43103 6.45721 6.97098 6.45721Q6.51093 6.45721 6.18179 6.78635Q5.84457 7.12158 5.84549 7.58347Q5.84641 8.04535 6.18347 8.37433L11.4824 13.6749Q11.2993 13.7593 11.1146 13.8638Q10.9299 13.9682 10.7451 14.0961L4.62143 7.97241Q4.28436 7.63535 3.82423 7.63535Q3.36411 7.63535 3.03513 7.97241Q2.70599 8.30154 2.70599 8.7616Q2.70599 9.22165 3.03513 9.55078L9.08859 15.6061Q8.9447 15.7712 8.81096 15.9444Q8.67722 16.1177 8.55728 16.291L3.00812 10.7401Q2.67105 10.4126 2.20924 10.4118Q1.74744 10.4109 1.41998 10.7401Q1.091 11.0674 1.09184 11.5332Q1.09268 11.9991 1.41998 12.328L7.44156 18.3496Q7.35886 18.5841 7.2963 18.8116Q7.23373 19.039 7.18491 19.2593L2.99194 15.0681Q2.66281 14.731 2.19872 14.7301Q1.73462 14.7293 1.40564 15.0645Q1.07651 15.3937 1.07651 15.8555Q1.07651 16.3173 1.40564 16.6464ZM13.2237 8.51852L11.4915 6.78802Q11.1606 6.45538 10.6966 6.4563Q10.2325 6.45721 9.90341 6.78635Q9.87335 6.81641 9.85199 6.85715L13.1369 10.1482Q13.0894 9.70337 13.1076 9.29657Q13.1258 8.88977 13.2237 8.51852ZM21.5823 23.3513Q23.1712 21.7607 23.5876 20.0481Q24.0041 18.3354 23.4213 16.3303Q23.2622 15.6908 23.0101 15.0172Q22.758 14.3437 22.4493 13.6651Q22.1405 12.9865 21.797 12.3234Q21.4534 11.6603 21.1174 11.024Q20.901 10.5992 20.6567 10.1301Q20.4124 9.66095 20.1871 9.26804Q19.9619 8.87512 19.7905 8.68896Q19.5065 8.36014 19.1202 8.34312Q18.7338 8.32611 18.4058 8.6174Q18.1401 8.83728 18.0417 9.14749Q18.2323 9.50119 18.4109 9.85573Q18.5895 10.2103 18.7819 10.556Q19.1 11.1665 19.4409 11.8393Q19.7818 12.5121 20.0936 13.2172Q20.4054 13.9223 20.6618 14.6333Q20.9183 15.3442 21.0712 16.0216Q21.7534 18.4433 21.2106 20.5003Q20.6677 22.5574 18.8632 24.3459Q18.2347 24.9841 17.5218 25.4617Q18.6177 25.3169 19.6519 24.7791Q20.686 24.2413 21.5823 23.3513Z" fill="rgba(255,255,255,0.85)"/>
 </g>
</svg>
